<?xml version="1.0" encoding="UTF-8"?>
<svg width="700pt" height="700pt" version="1.1" viewBox="0 0 700 700" xmlns="http://www.w3.org/2000/svg" xmlns:xlink="http://www.w3.org/1999/xlink">
 <defs>
  <symbol id="l" overflow="visible">
   <path d="m29.547-1.7656c-1.5312 0.79297-3.1211 1.3867-4.7656 1.7812-1.6484 0.40625-3.3711 0.60938-5.1719 0.60938-5.3555 0-9.5938-1.4922-12.719-4.4844-3.125-3-4.6875-7.0625-4.6875-12.188 0-5.1328 1.5625-9.1953 4.6875-12.188 3.125-2.9883 7.3633-4.4844 12.719-4.4844 1.8008 0 3.5234 0.20312 5.1719 0.60938 1.6445 0.39844 3.2344 0.98438 4.7656 1.7656v6.6562c-1.543-1.0391-3.0625-1.8047-4.5625-2.2969-1.4922-0.48828-3.0586-0.73438-4.7031-0.73438-2.9609 0-5.2891 0.94922-6.9844 2.8438-1.6875 1.8984-2.5312 4.5078-2.5312 7.8281 0 3.3242 0.84375 5.9336 2.5312 7.8281 1.6953 1.8984 4.0234 2.8438 6.9844 2.8438 1.6445 0 3.2109-0.24219 4.7031-0.73438 1.5-0.48828 3.0195-1.2578 4.5625-2.3125z"/>
  </symbol>
  <symbol id="d" overflow="visible">
   <path d="m21.609-17.547c-0.66797-0.3125-1.3359-0.53906-2-0.6875-0.66797-0.15625-1.3398-0.23438-2.0156-0.23438-1.9805 0-3.5078 0.63672-4.5781 1.9062-1.0742 1.2734-1.6094 3.0898-1.6094 5.4531v11.109h-7.7031v-24.109h7.7031v3.9531c0.98828-1.5703 2.125-2.7188 3.4062-3.4375 1.2891-0.72656 2.832-1.0938 4.625-1.0938 0.25781 0 0.53906 0.011719 0.84375 0.03125 0.30078 0.023438 0.73828 0.070312 1.3125 0.14062z"/>
  </symbol>
  <symbol id="a" overflow="visible">
   <path d="m27.781-12.125v2.2031h-18.031c0.1875 1.8047 0.83594 3.1562 1.9531 4.0625 1.125 0.90625 2.6914 1.3594 4.7031 1.3594 1.625 0 3.2852-0.23828 4.9844-0.71875 1.6953-0.47656 3.4414-1.207 5.2344-2.1875v5.9375c-1.8125 0.6875-3.6328 1.2109-5.4531 1.5625-1.8242 0.35156-3.6484 0.53125-5.4688 0.53125-4.3672 0-7.7617-1.1094-10.188-3.3281-2.418-2.2188-3.625-5.3281-3.625-9.3281 0-3.9375 1.1875-7.0312 3.5625-9.2812s5.6445-3.375 9.8125-3.375c3.7891 0 6.8203 1.1406 9.0938 3.4219 2.2812 2.2812 3.4219 5.3281 3.4219 9.1406zm-7.9375-2.5625c0-1.457-0.42969-2.6328-1.2812-3.5312-0.85547-0.90625-1.9688-1.3594-3.3438-1.3594-1.4922 0-2.7031 0.42188-3.6406 1.2656-0.92969 0.84375-1.5078 2.0547-1.7344 3.625z"/>
  </symbol>
  <symbol id="c" overflow="visible">
   <path d="m14.516-10.844c-1.6172 0-2.8281 0.27344-3.6406 0.8125-0.80469 0.54297-1.2031 1.3438-1.2031 2.4062 0 0.98047 0.32031 1.7461 0.96875 2.2969 0.65625 0.55469 1.5664 0.82812 2.7344 0.82812 1.4453 0 2.6641-0.51953 3.6562-1.5625 0.98828-1.0391 1.4844-2.3438 1.4844-3.9062v-0.875zm11.766-2.9062v13.75h-7.7656v-3.5781c-1.0312 1.4688-2.1953 2.5391-3.4844 3.2031-1.293 0.66406-2.8672 1-4.7188 1-2.5 0-4.5312-0.72656-6.0938-2.1875-1.5547-1.457-2.3281-3.3477-2.3281-5.6719 0-2.8203 0.97266-4.8945 2.9219-6.2188 1.9453-1.3203 5-1.9844 9.1562-1.9844h4.5469v-0.60938c0-1.2188-0.48438-2.1094-1.4531-2.6719-0.96094-0.57031-2.4531-0.85938-4.4844-0.85938-1.6562 0-3.1992 0.16797-4.625 0.5-1.418 0.33594-2.7344 0.82812-3.9531 1.4844v-5.875c1.6562-0.40625 3.3125-0.70703 4.9688-0.90625 1.6641-0.20703 3.332-0.3125 5-0.3125 4.3516 0 7.4922 0.85938 9.4219 2.5781 1.9258 1.7109 2.8906 4.4961 2.8906 8.3594z"/>
  </symbol>
  <symbol id="i" overflow="visible">
   <path d="m12.125-30.953v6.8438h7.9375v5.5h-7.9375v10.234c0 1.1172 0.21875 1.8711 0.65625 2.2656 0.44531 0.39844 1.332 0.59375 2.6562 0.59375h3.9688v5.5156h-6.625c-3.043 0-5.1992-0.63281-6.4688-1.9062-1.2734-1.2695-1.9062-3.4258-1.9062-6.4688v-10.234h-3.8281v-5.5h3.8281v-6.8438z"/>
  </symbol>
  <symbol id="b" overflow="visible">
   <path d="m20.109-20.578v-12.922h7.75v33.5h-7.75v-3.4844c-1.0625 1.418-2.2344 2.4609-3.5156 3.125-1.2734 0.65625-2.7461 0.98438-4.4219 0.98438-2.9805 0-5.4219-1.1758-7.3281-3.5312-1.9062-2.3633-2.8594-5.4062-2.8594-9.125s0.95312-6.7539 2.8594-9.1094c1.9062-2.3633 4.3477-3.5469 7.3281-3.5469 1.6562 0 3.125 0.33594 4.4062 1 1.2891 0.66797 2.4688 1.7031 3.5312 3.1094zm-5.0781 15.609c1.6445 0 2.8984-0.60156 3.7656-1.8125 0.875-1.207 1.3125-2.957 1.3125-5.25 0-2.3008-0.4375-4.0508-1.3125-5.25-0.86719-1.207-2.1211-1.8125-3.7656-1.8125-1.6367 0-2.8906 0.60547-3.7656 1.8125-0.86719 1.1992-1.2969 2.9492-1.2969 5.25 0 2.293 0.42969 4.043 1.2969 5.25 0.875 1.2109 2.1289 1.8125 3.7656 1.8125z"/>
  </symbol>
  <symbol id="h" overflow="visible">
   <path d="m16.531-4.9688c1.6562 0 2.9141-0.60156 3.7812-1.8125 0.86328-1.207 1.2969-2.957 1.2969-5.25 0-2.3008-0.43359-4.0508-1.2969-5.25-0.86719-1.207-2.125-1.8125-3.7812-1.8125-1.6484 0-2.9141 0.60938-3.7969 1.8281-0.88672 1.2109-1.3281 2.9531-1.3281 5.2344s0.44141 4.0312 1.3281 5.25c0.88281 1.2109 2.1484 1.8125 3.7969 1.8125zm-5.125-15.609c1.0625-1.4062 2.2383-2.4414 3.5312-3.1094 1.2891-0.66406 2.7812-1 4.4688-1 2.9688 0 5.4062 1.1836 7.3125 3.5469 1.9062 2.3555 2.8594 5.3906 2.8594 9.1094s-0.95312 6.7617-2.8594 9.125c-1.9062 2.3555-4.3438 3.5312-7.3125 3.5312-1.6875 0-3.1797-0.33594-4.4688-1-1.293-0.66406-2.4688-1.7031-3.5312-3.1094v3.4844h-7.7031v-33.5h7.7031z"/>
  </symbol>
  <symbol id="g" overflow="visible">
   <path d="m0.53125-24.109h7.7188l6.4844 16.359 5.5-16.359h7.7188l-10.141 26.391c-1.0234 2.6875-2.2148 4.5625-3.5781 5.625-1.3555 1.0703-3.1406 1.6094-5.3594 1.6094h-4.4688v-5.0625h2.4219c1.3008 0 2.25-0.21094 2.8438-0.625 0.60156-0.41797 1.0664-1.1641 1.3906-2.2344l0.21875-0.67188z"/>
  </symbol>
  <symbol id="f" overflow="visible">
   <path d="m16.922-19.703c1.3008 0 2.2891-0.28516 2.9688-0.85938 0.67578-0.57031 1.0156-1.4219 1.0156-2.5469 0-1.1016-0.33984-1.9414-1.0156-2.5156-0.67969-0.58203-1.668-0.875-2.9688-0.875h-4.5781v6.7969zm0.28125 14.062c1.6641 0 2.9141-0.34766 3.75-1.0469 0.84375-0.70703 1.2656-1.7695 1.2656-3.1875 0-1.3945-0.41797-2.4414-1.25-3.1406-0.83594-0.69531-2.0898-1.0469-3.7656-1.0469h-4.8594v8.4219zm7.7031-11.562c1.7812 0.52344 3.1602 1.4805 4.1406 2.875 0.97656 1.3867 1.4688 3.0898 1.4688 5.1094 0 3.1055-1.0547 5.418-3.1562 6.9375-2.0938 1.5234-5.2773 2.2812-9.5469 2.2812h-13.766v-32.141h12.438c4.4688 0 7.7031 0.67969 9.7031 2.0312 2 1.3438 3 3.5 3 6.4688 0 1.5625-0.36719 2.8984-1.0938 4-0.73047 1.0938-1.793 1.9062-3.1875 2.4375z"/>
  </symbol>
  <symbol id="e" overflow="visible">
   <path d="m27.953-14.688v14.688h-7.7656v-11.234c0-2.082-0.046875-3.5195-0.14062-4.3125-0.085937-0.78906-0.24219-1.3672-0.46875-1.7344-0.30469-0.50781-0.71484-0.89844-1.2344-1.1719-0.52344-0.28125-1.1094-0.42188-1.7656-0.42188-1.6055 0-2.8711 0.62109-3.7969 1.8594-0.91797 1.2422-1.375 2.9609-1.375 5.1562v11.859h-7.7031v-24.109h7.7031v3.5312c1.1641-1.4062 2.3984-2.4414 3.7031-3.1094 1.3125-0.66406 2.7539-1 4.3281-1 2.7891 0 4.9062 0.85547 6.3438 2.5625 1.4453 1.6992 2.1719 4.1797 2.1719 7.4375z"/>
  </symbol>
  <symbol id="k" overflow="visible">
   <path d="m4.0469-32.141h8.2969v25.875h14.547v6.2656h-22.844z"/>
  </symbol>
  <symbol id="j" overflow="visible">
   <path d="m3.7031-33.5h7.7031v18.234l8.875-8.8438h8.9531l-11.766 11.062 12.688 13.047h-9.3438l-9.4062-10.047v10.047h-7.7031z"/>
  </symbol>
 </defs>
 <g>
  <path d="m127.5 75.137h52.031c2.1484 7.6367 7.8711 13.758 15.352 16.41 7.4766 2.6523 15.777 1.5078 22.258-3.0703 6.4805-4.5781 10.336-12.02 10.336-19.953 0-7.9336-3.8555-15.375-10.336-19.953-6.4805-4.5781-14.781-5.7227-22.258-3.0703-7.4805 2.6523-13.203 8.7695-15.352 16.41h-52.031c-3.6523 0-6.6133 2.9609-6.6133 6.6133 0 3.6523 2.9609 6.6133 6.6133 6.6133z"/>
  <path d="m203.16 515.91c6.1016-0.019531 11.973-2.3164 16.465-6.4453 4.4883-4.125 7.2734-9.7852 7.8008-15.863 0.53125-6.0742-1.2305-12.129-4.9375-16.973-3.7109-4.8398-9.0938-8.1211-15.098-9.1953-6.0039-1.0742-12.195 0.14062-17.352 3.3984s-8.9062 8.3281-10.512 14.211h-52.031c-3.6523 0-6.6133 2.9609-6.6133 6.6133s2.9609 6.6172 6.6133 6.6172h52.031c1.5156 5.0898 4.6367 9.5547 8.8945 12.734 4.2578 3.1758 9.4258 4.8945 14.738 4.9023z"/>
  <path d="m127.5 413.61h52.031c2.1484 7.6719 7.8906 13.82 15.398 16.488 7.5039 2.668 15.84 1.5234 22.348-3.0742 6.5078-4.5938 10.379-12.062 10.379-20.027 0-7.9648-3.8711-15.438-10.379-20.031-6.5078-4.5938-14.844-5.7383-22.348-3.0703-7.5078 2.668-13.25 8.8164-15.398 16.488h-52.031c-3.6523 0-6.6133 2.9609-6.6133 6.6133 0 3.6523 2.9609 6.6133 6.6133 6.6133z"/>
  <path d="m127.5 328.95h52.031c2.1484 7.6719 7.8906 13.82 15.398 16.484 7.5039 2.668 15.84 1.5234 22.348-3.0703 6.5078-4.5938 10.379-12.062 10.379-20.027 0-7.9688-3.8711-15.438-10.379-20.031-6.5078-4.5938-14.844-5.7383-22.348-3.0703-7.5078 2.668-13.25 8.8164-15.398 16.484h-52.031c-3.6523 0-6.6133 2.9648-6.6133 6.6172 0 3.6523 2.9609 6.6133 6.6133 6.6133z"/>
  <path d="m127.5 244.37h52.031c1.5156 5.0938 4.6367 9.5586 8.8945 12.734 4.2578 3.1797 9.4258 4.8984 14.738 4.9023 6.1211 0 12.023-2.2891 16.539-6.418 4.5195-4.1328 7.3281-9.8047 7.8789-15.898 0.54688-6.0977-1.2031-12.18-4.9141-17.051-3.707-4.8711-9.1016-8.1758-15.125-9.2695-6.0234-1.0938-12.238 0.10547-17.422 3.3633-5.1836 3.2539-8.9609 8.332-10.59 14.234h-52.031c-3.6523 0-6.6133 2.9609-6.6133 6.6133 0 3.6523 2.9609 6.6133 6.6133 6.6133z"/>
  <path d="m544.19 0h-355.14c-9.3555 0-18.328 3.7148-24.941 10.332-6.6172 6.6172-10.332 15.59-10.332 24.945v8.8164h14.902c6.9141-9.7969 17.676-16.176 29.59-17.539 11.91-1.3633 23.836 2.418 32.785 10.402 8.9453 7.9805 14.062 19.398 14.062 31.391 0 11.988-5.1172 23.41-14.062 31.391-8.9492 7.9805-20.875 11.766-32.785 10.402-11.914-1.3633-22.676-7.7461-29.59-17.543h-14.465v36.156l14.465 0.003906c6.9062-9.8125 17.676-16.203 29.594-17.574 11.922-1.3672 23.859 2.418 32.809 10.406 8.9531 7.9883 14.066 19.422 14.059 31.418-0.027343 11.965-5.1484 23.355-14.082 31.312-8.9336 7.9609-20.836 11.742-32.723 10.395-11.891-1.3477-22.645-7.6953-29.566-17.453h-14.555v36.07l14.465-0.003906c6.918-9.832 17.703-16.246 29.645-17.625s23.906 2.4102 32.883 10.406c8.9727 8 14.105 19.449 14.105 31.473 0 12.02-5.1328 23.473-14.105 31.469-8.9766 8-20.941 11.785-32.883 10.406-11.941-1.3789-22.727-7.7891-29.645-17.625h-14.465v36.246h14.465c6.9141-9.7969 17.676-16.176 29.59-17.539 11.91-1.3633 23.836 2.418 32.785 10.402 8.9453 7.9805 14.062 19.398 14.062 31.391 0 11.988-5.1172 23.406-14.062 31.391-8.9492 7.9805-20.875 11.766-32.785 10.402-11.914-1.3633-22.676-7.7461-29.59-17.543h-14.465v36.156h14.465c6.9062-9.8086 17.676-16.199 29.594-17.57 11.922-1.3672 23.859 2.418 32.809 10.406 8.9531 7.9883 14.066 19.422 14.059 31.418-0.027343 11.965-5.1484 23.352-14.082 31.312-8.9336 7.9609-20.836 11.742-32.723 10.395-11.891-1.3516-22.645-7.6953-29.566-17.457h-14.555v36.16h14.465c6.9062-9.8086 17.676-16.203 29.594-17.57 11.922-1.3711 23.859 2.418 32.809 10.406 8.9531 7.9883 14.066 19.418 14.059 31.414-0.023437 11.121-4.457 21.773-12.328 29.629-7.8711 7.8516-18.531 12.262-29.652 12.262-13.625-0.039063-26.41-6.5938-34.391-17.637h-14.555v9.3477c0 9.3555 3.7188 18.328 10.332 24.941 6.6172 6.6172 15.59 10.332 24.945 10.332h354.7c9.3555 0 18.328-3.7148 24.945-10.332 6.6133-6.6133 10.332-15.586 10.332-24.941v-489.98c0-9.3555-3.7188-18.328-10.332-24.945-6.6172-6.6172-15.59-10.332-24.945-10.332zm-20.812 505.41h-246.31c-3.6523 0-6.6133-2.9609-6.6133-6.6133s2.9609-6.6133 6.6133-6.6133h246.31c3.6523 0 6.6133 2.9609 6.6133 6.6133s-2.9609 6.6133-6.6133 6.6133zm0-54.676h-246.31c-3.6523 0-6.6133-2.9609-6.6133-6.6133 0-3.6562 2.9609-6.6172 6.6133-6.6172h246.31c3.6523 0 6.6133 2.9609 6.6133 6.6172 0 3.6523-2.9609 6.6133-6.6133 6.6133zm0-54.676h-246.31c-3.6523 0-6.6133-2.9648-6.6133-6.6172s2.9609-6.6133 6.6133-6.6133h246.31c3.6523 0 6.6133 2.9609 6.6133 6.6133s-2.9609 6.6172-6.6133 6.6172zm0-54.766h-246.31c-3.6523 0-6.6133-2.9648-6.6133-6.6172 0-3.6523 2.9609-6.6133 6.6133-6.6133h246.31c3.6523 0 6.6133 2.9609 6.6133 6.6133 0 3.6523-2.9609 6.6172-6.6133 6.6172zm0-54.676-246.31-0.003907c-3.6523 0-6.6133-2.9609-6.6133-6.6133s2.9609-6.6133 6.6133-6.6133h246.31c3.6523 0 6.6133 2.9609 6.6133 6.6133s-2.9609 6.6133-6.6133 6.6133zm0-54.676-246.31-0.003906c-3.6523 0-6.6133-2.9609-6.6133-6.6133 0-3.6523 2.9609-6.6172 6.6133-6.6172h246.31c3.6523 0 6.6133 2.9648 6.6133 6.6172 0 3.6523-2.9609 6.6133-6.6133 6.6133zm0-54.766-246.31-0.003906c-3.6523 0-6.6133-2.9609-6.6133-6.6133s2.9609-6.6172 6.6133-6.6172h246.31c3.6523 0 6.6133 2.9648 6.6133 6.6172s-2.9609 6.6133-6.6133 6.6133zm0-54.676-246.31-0.003906c-3.6523 0-6.6133-2.9609-6.6133-6.6172 0-3.6523 2.9609-6.6133 6.6133-6.6133h246.31c3.6523 0 6.6133 2.9609 6.6133 6.6133 0 3.6562-2.9609 6.6172-6.6133 6.6172zm0-54.676-246.31-0.007813c-3.6523 0-6.6133-2.9609-6.6133-6.6133s2.9609-6.6133 6.6133-6.6133h246.31c3.6523 0 6.6133 2.9609 6.6133 6.6133s-2.9609 6.6133-6.6133 6.6133z"/>
  <path d="m127.5 159.8h52.031c2.1484 7.6719 7.8906 13.82 15.398 16.488 7.5039 2.668 15.84 1.5234 22.348-3.0703 6.5078-4.5938 10.379-12.066 10.379-20.031s-3.8711-15.434-10.379-20.027c-6.5078-4.5938-14.844-5.7422-22.348-3.0742-7.5078 2.668-13.25 8.8164-15.398 16.488h-52.031c-3.6523 0-6.6133 2.9609-6.6133 6.6133s2.9609 6.6133 6.6133 6.6133z"/>
  <use x="120.886719" y="692.285156" xlink:href="#l"/>
  <use x="153.246094" y="692.285156" xlink:href="#d"/>
  <use x="174.992188" y="692.285156" xlink:href="#a"/>
  <use x="204.898438" y="692.285156" xlink:href="#c"/>
  <use x="234.652344" y="692.285156" xlink:href="#i"/>
  <use x="255.730469" y="692.285156" xlink:href="#a"/>
  <use x="285.636719" y="692.285156" xlink:href="#b"/>
  <use x="332.550781" y="692.285156" xlink:href="#h"/>
  <use x="364.113281" y="692.285156" xlink:href="#g"/>
  <use x="408.210938" y="692.285156" xlink:href="#f"/>
  <use x="441.820312" y="692.285156" xlink:href="#a"/>
  <use x="471.726563" y="692.285156" xlink:href="#d"/>
  <use x="493.46875" y="692.285156" xlink:href="#e"/>
  <use x="524.863281" y="692.285156" xlink:href="#b"/>
  <use x="571.777344" y="692.285156" xlink:href="#k"/>
  <use x="599.875" y="692.285156" xlink:href="#c"/>
  <use x="629.628906" y="692.285156" xlink:href="#j"/>
  <use x="658.953125" y="692.285156" xlink:href="#a"/>
  <use x="688.859375" y="692.285156" xlink:href="#e"/>
 </g>
</svg>
